<svg xmlns="http://www.w3.org/2000/svg" viewBox="0 0 110.02 109.91"><defs><style>.cls-1{fill:#3e3d3d;}.cls-2{fill:#6e6e6e;}.cls-3{fill:#fff;}</style></defs><title>Asset 1</title><g id="Layer_2" data-name="Layer 2"><g id="Layer_1-2" data-name="Layer 1"><path class="cls-1" d="M86.91,36.26V23.06H73.71V13.17H9.61A9.6,9.6,0,0,0,0,22.77v77.54a9.6,9.6,0,0,0,9.61,9.6H87.19a9.6,9.6,0,0,0,9.61-9.6V36.26Z"/><path class="cls-2" d="M61,76.26A12.85,12.85,0,1,1,48.1,63.42,12.84,12.84,0,0,1,61,76.26"/><polygon class="cls-3" points="12.23 98.6 29.26 73.78 54.17 98.6 12.23 98.6"/><polygon class="cls-3" points="47.63 98.6 68.4 61.93 83.97 98.6 47.63 98.6"/><rect class="cls-2" x="73.36" y="13.19" width="36.65" height="10.24"/><rect class="cls-2" x="86.57" width="10.25" height="36.63"/></g></g></svg>