<svg xmlns="http://www.w3.org/2000/svg" viewBox="0 0 162 134.77"><defs><style>.cls-1{fill:#6c9769;}</style></defs><title>Asset 2</title><g id="Layer_2" data-name="Layer 2"><g id="Layer_1-2" data-name="Layer 1"><path class="cls-1" d="M53.89,21.33H12.38a.86.86,0,0,1-.86-.85V18.91a.86.86,0,0,1,.86-.85H53.89a.85.85,0,0,1,.85.85v1.57a.85.85,0,0,1-.85.85"/><path class="cls-1" d="M66.52,34.48H12.38a.86.86,0,0,1-.86-.85V32.06a.86.86,0,0,1,.86-.85H66.52a.85.85,0,0,1,.85.85v1.57a.85.85,0,0,1-.85.85"/><path class="cls-1" d="M66.52,47.64H12.38a.86.86,0,0,1-.86-.85V45.22a.86.86,0,0,1,.86-.85H66.52a.85.85,0,0,1,.85.85v1.57a.85.85,0,0,1-.85.85"/><path class="cls-1" d="M66.52,61.54H12.38a.87.87,0,0,1-.86-.86V59.12a.86.86,0,0,1,.86-.86H66.52a.85.85,0,0,1,.85.86v1.56a.86.86,0,0,1-.85.86"/><path class="cls-1" d="M66.52,76.52H12.38a.86.86,0,0,1-.86-.85V74.1a.86.86,0,0,1,.86-.85H66.52a.85.85,0,0,1,.85.85v1.57a.85.85,0,0,1-.85.85"/><path class="cls-1" d="M139.83,21.46H98.32a.86.86,0,0,1-.85-.86V19a.85.85,0,0,1,.85-.86h41.51a.85.85,0,0,1,.86.86V20.6a.86.86,0,0,1-.86.86"/><path class="cls-1" d="M139.83,34.61H85.69a.85.85,0,0,1-.85-.85V32.19a.85.85,0,0,1,.85-.85h54.14a.85.85,0,0,1,.86.85v1.57a.85.85,0,0,1-.86.85"/><path class="cls-1" d="M139.83,47.76H85.69a.85.85,0,0,1-.85-.85V45.34a.85.85,0,0,1,.85-.85h54.14a.85.85,0,0,1,.86.85v1.57a.85.85,0,0,1-.86.85"/><path class="cls-1" d="M139.83,61.66H85.69a.85.85,0,0,1-.85-.85V59.24a.85.85,0,0,1,.85-.85h54.14a.85.85,0,0,1,.86.85v1.57a.85.85,0,0,1-.86.85"/><path class="cls-1" d="M139.83,76.64H85.69a.85.85,0,0,1-.85-.85V74.22a.85.85,0,0,1,.85-.85h54.14a.85.85,0,0,1,.86.85v1.57a.85.85,0,0,1-.86.85"/><polygon class="cls-1" points="89.47 22.07 84.84 25.52 84.84 0 94.1 0 94.1 25.52 89.47 22.07"/><path class="cls-1" d="M146.64,0V0l-.3,0H81.26A5.17,5.17,0,0,0,76.2,5.28v0a5.15,5.15,0,0,0-5-5.25H5.71L5.39,0V0A5.5,5.5,0,0,0,0,5.61v104.7a5.5,5.5,0,0,0,5.39,5.61v-.09l.32,0H69.65c0,.86,2.93,1.56,6.55,1.56s6.5-.69,6.54-1.54v-6H81.05a4.94,4.94,0,0,0-2.16.51V6h67.75V84.61H152v-79A5.5,5.5,0,0,0,146.64,0M73.51,110.62A4.91,4.91,0,0,0,71,109.9H5.39V6H73.51ZM76.2,6v0s0,0,0,0Z"/><path class="cls-1" d="M84,109.9H82.06v5.95h.81a1.92,1.92,0,0,0,1.92-1.92v-3.2a.83.83,0,0,0-.82-.83"/><path class="cls-1" d="M162,94.83a4.17,4.17,0,0,0-4.08-4.25H129.48V89.24a2.72,2.72,0,0,0-2.67-2.77H104.4a2.72,2.72,0,0,0-2.66,2.77v1.34H94.62l-.12,0a1.84,1.84,0,0,0-.33,0,4,4,0,0,0-3.46,3.6l0,.34s0,.08,0,.13h0v36h0s0,.08,0,.12l0,.35a4,4,0,0,0,3.46,3.59l.33,0h63.67l.33,0a4,4,0,0,0,3.45-3.59c0-.12,0-.23,0-.35s0-.08,0-.12h0s0-.09,0-.14ZM94.75,130.66v-36h10.4a2.25,2.25,0,0,0,2.2-2.3V90.58H123V92.4a2.26,2.26,0,0,0,2.21,2.3H142v36Zm51.44-36h11.73v36H146.19Z"/><path class="cls-1" d="M115.61,99.64a13,13,0,1,0,12.92,13,13,13,0,0,0-12.92-13m0,24a11,11,0,1,1,10.88-11,10.92,10.92,0,0,1-10.88,11"/></g></g></svg>