<svg xmlns="http://www.w3.org/2000/svg" viewBox="0 0 102.4 102.39"><defs><style>.cls-1{fill:#fff;}</style></defs><title>Asset 2</title><g id="Layer_2" data-name="Layer 2"><g id="Layer_1-2" data-name="Layer 1"><path class="cls-1" d="M65,15.82a59.1,59.1,0,0,0-26.72.08Q39.44,8,40.63,0H62.1Q63.54,7.9,65,15.82"/><path class="cls-1" d="M65,86.58A59.76,59.76,0,0,1,51.6,88.07a59.2,59.2,0,0,1-13.36-1.58q1.2,8,2.39,15.9H62.1q1.44-7.9,2.86-15.81"/><path class="cls-1" d="M89.9,44.34a55,55,0,0,0-5.53-11.93,56,56,0,0,0-8.23-10.36L91.4,15.9l11,18L89.9,44.34"/><path class="cls-1" d="M51.6,12.86c-22,0-39.92,17.39-39.92,38.85S29.56,90.55,51.6,90.55,91.52,73.16,91.52,51.71,73.65,12.86,51.6,12.86m0,65c-14.86,0-26.91-11.72-26.91-26.18S36.74,25.52,51.6,25.52,78.52,37.24,78.52,51.71s-12,26.18-26.92,26.18"/><path class="cls-1" d="M12.5,59.46A55.13,55.13,0,0,0,18,71.39a56.64,56.64,0,0,0,8.23,10.36L11,87.9,0,70,12.5,59.46"/><path class="cls-1" d="M12.5,44.34A54.92,54.92,0,0,1,18,32.41a56,56,0,0,1,8.23-10.36L11,15.9l-11,18L12.5,44.34"/><path class="cls-1" d="M89.9,59.46a55.23,55.23,0,0,1-5.53,11.93,56.64,56.64,0,0,1-8.23,10.36L91.4,87.9l11-18L89.9,59.46"/></g></g></svg>